<svg xmlns="http://www.w3.org/2000/svg" viewBox="0 0 72 96" fill="none">
  <path d="M35 20 C24 19 18 26 18 37 C18 52 27 62 37 62 C48 62 56 52 55 38 C54 27 47 21 35 20Z" fill="#f4a9b9" fill-opacity="0.62" stroke="#8e5e77" stroke-width="1.8" stroke-linejoin="round"/>
  <circle cx="31" cy="35" r="2.3" fill="#2f3437"/>
  <circle cx="43" cy="34" r="2.3" fill="#2f3437"/>
  <path d="M34 44 C38 47 42 46 45 42" stroke="#2f3437" stroke-width="1.4" stroke-linecap="round"/>
  <path d="M22 30 C14 20 12 11 20 8 C26 5 29 15 31 22" fill="#f4a9b9" fill-opacity="0.5" stroke="#8e5e77" stroke-width="1.5" stroke-linejoin="round"/>
  <path d="M49 28 C57 18 60 10 53 7 C47 4 43 14 41 21" fill="#f4a9b9" fill-opacity="0.5" stroke="#8e5e77" stroke-width="1.5" stroke-linejoin="round"/>
  <path d="M28 60 L20 88 M45 60 L54 88 M25 78 L49 78" stroke="#8e5e77" stroke-width="2" stroke-linecap="round"/>
  <path d="M21 88 C25 92 31 92 34 88 M50 88 C55 92 61 91 63 86" stroke="#8e5e77" stroke-width="1.6" stroke-linecap="round"/>
</svg>
