<svg viewBox="0 0 1200 120" preserveAspectRatio="none" xmlns="http://www.w3.org/2000/svg"><rect width="1200" height="120" fill="var(--color-panel)" fill-opacity="0.06"/><rect x="40" y="60" width="30" height="60" fill="var(--color-panel)" fill-opacity="0.25" rx="2"/><rect x="80" y="40" width="50" height="80" fill="var(--color-panel)" fill-opacity="0.3" rx="2"/><rect x="140" y="55" width="35" height="65" fill="var(--color-panel)" fill-opacity="0.2" rx="2"/><rect x="185" y="30" width="60" height="90" fill="var(--color-panel)" fill-opacity="0.28" rx="2"/><rect x="255" y="50" width="40" height="70" fill="var(--color-panel)" fill-opacity="0.22" rx="2"/><rect x="305" y="20" width="70" height="100" fill="var(--color-panel)" fill-opacity="0.32" rx="2"/><rect x="385" y="45" width="45" height="75" fill="var(--color-panel)" fill-opacity="0.2" rx="2"/><rect x="440" y="35" width="55" height="85" fill="var(--color-panel)" fill-opacity="0.27" rx="2"/><rect x="505" y="55" width="38" height="65" fill="var(--color-panel)" fill-opacity="0.22" rx="2"/><rect x="553" y="25" width="65" height="95" fill="var(--color-panel)" fill-opacity="0.3" rx="2"/><rect x="628" y="48" width="42" height="72" fill="var(--color-panel)" fill-opacity="0.2" rx="2"/><rect x="680" y="38" width="58" height="82" fill="var(--color-panel)" fill-opacity="0.28" rx="2"/><rect x="748" y="52" width="36" height="68" fill="var(--color-panel)" fill-opacity="0.22" rx="2"/><rect x="794" y="22" width="68" height="98" fill="var(--color-panel)" fill-opacity="0.32" rx="2"/><rect x="872" y="46" width="44" height="74" fill="var(--color-panel)" fill-opacity="0.2" rx="2"/><rect x="926" y="36" width="56" height="84" fill="var(--color-panel)" fill-opacity="0.26" rx="2"/><rect x="992" y="50" width="40" height="70" fill="var(--color-panel)" fill-opacity="0.22" rx="2"/><rect x="1042" y="28" width="62" height="92" fill="var(--color-panel)" fill-opacity="0.3" rx="2"/><rect x="1114" y="44" width="48" height="76" fill="var(--color-panel)" fill-opacity="0.24" rx="2"/><rect x="90" y="48" width="8" height="6" fill="#ffeb3b" fill-opacity="0.5" rx="1"/><rect x="102" y="48" width="8" height="6" fill="#ffeb3b" fill-opacity="0.3" rx="1"/><rect x="195" y="38" width="8" height="6" fill="#ffeb3b" fill-opacity="0.4" rx="1"/><rect x="208" y="38" width="8" height="6" fill="#ffeb3b" fill-opacity="0.6" rx="1"/><rect x="315" y="28" width="8" height="6" fill="#ffeb3b" fill-opacity="0.5" rx="1"/><rect x="563" y="33" width="8" height="6" fill="#ffeb3b" fill-opacity="0.4" rx="1"/><path d="M0,100 C200,88 400,105 600,95 C800,85 1000,102 1200,92 L1200,120 L0,120 Z" fill="var(--color-background)" fill-opacity="0.4"/></svg>