<svg viewBox="0 0 400 24" xmlns="http://www.w3.org/2000/svg" width="400" height="24" preserveAspectRatio="none"><path d="M0 18 Q40 4, 80 16 Q120 28, 160 12 Q200 0, 240 14 Q280 26, 320 10 Q360 2, 400 16" stroke="#f57c00" stroke-width="4" fill="none" opacity="0.7" stroke-linecap="round"/><path d="M0 14 Q50 22, 100 10 Q150 2, 200 18 Q250 28, 300 12 Q350 4, 400 20" stroke="#6a1b9a" stroke-width="2.5" fill="none" opacity="0.5" stroke-linecap="round"/><path d="M0 20 Q60 10, 120 18 Q180 24, 240 8 Q300 0, 360 16 Q380 20, 400 14" stroke="#388e3c" stroke-width="2" fill="none" opacity="0.4" stroke-linecap="round"/></svg>