<svg viewBox="0 0 90 90" xmlns="http://www.w3.org/2000/svg" width="90" height="90"><g><ellipse cx="45" cy="12" rx="7" ry="14" fill="#6a1b9a" transform="rotate(0 45 45)"/><ellipse cx="45" cy="12" rx="7" ry="14" fill="#8b26b8" transform="rotate(45 45 45)"/><ellipse cx="45" cy="12" rx="7" ry="14" fill="#6a1b9a" transform="rotate(90 45 45)"/><ellipse cx="45" cy="12" rx="7" ry="14" fill="#7b1fa2" transform="rotate(135 45 45)"/><ellipse cx="45" cy="12" rx="7" ry="14" fill="#6a1b9a" transform="rotate(180 45 45)"/><ellipse cx="45" cy="12" rx="7" ry="14" fill="#9c27b0" transform="rotate(225 45 45)"/><ellipse cx="45" cy="12" rx="7" ry="14" fill="#6a1b9a" transform="rotate(270 45 45)"/><ellipse cx="45" cy="12" rx="7" ry="14" fill="#7b1fa2" transform="rotate(315 45 45)"/><ellipse cx="45" cy="45" rx="18" ry="13" fill="#f3e5f5"/><circle cx="45" cy="45" r="9" fill="#388e3c"/><circle cx="45" cy="45" r="5" fill="#1a1035"/><circle cx="48" cy="42" r="2.5" fill="#f3e5f5" opacity="0.85"/><ellipse cx="45" cy="45" rx="18" ry="13" fill="none" stroke="#f57c00" stroke-width="1.5"/></g></svg>